# MagicaVoxel @ Ephtracy

# group
o 

# material
mtllib poweruprotatingoutside.mtl
usemtl palette

# normals
vn -1 0 0
vn 1 0 0
vn 0 0 1
vn 0 0 -1
vn 0 -1 0
vn 0 1 0

# texcoords
vt 0.958984 0.5
vt 0.982422 0.5
vt 0.994141 0.5

# verts
v 0.7 2.5 0
v 0.7 2.5 -4
v 0.7 2.6 0
v 0.7 2.6 -4
v 0.7 3.4 0
v 0.7 3.4 -4
v 0.7 3.5 0
v 0.7 3.5 -4
v 0.7 4.8 0
v 0.7 4.8 -4
v 0.7 4.9 0
v 0.7 4.9 -4
v 0.7 5.8 0
v 0.7 5.8 -4
v 0.7 5.9 0
v 0.7 5.9 -4
v 3.3 2.5 0
v 3.3 2.5 -4
v 3.3 2.6 0
v 3.3 2.6 -4
v 3.3 3.4 0
v 3.3 3.4 -4
v 3.3 3.5 0
v 3.3 3.5 -4
v 3.3 4.8 0
v 3.3 4.8 -4
v 3.3 4.9 0
v 3.3 4.9 -4
v 3.3 5.8 0
v 3.3 5.8 -4
v 3.3 5.9 0
v 3.3 5.9 -4
v 0.7 2.5 0
v 0.7 2.6 0
v 0.7 3.4 0
v 0.7 3.5 0
v 0.7 4.8 0
v 0.7 4.9 0
v 0.7 5.8 0
v 0.7 5.9 0
v 0.8 2.5 0
v 0.8 2.6 0
v 0.8 3.4 0
v 0.8 3.5 0
v 0.8 4.8 0
v 0.8 4.9 0
v 0.8 5.8 0
v 0.8 5.9 0
v 1 2.5 0
v 1 3.5 0
v 1 4.8 0
v 1 5.9 0
v 1.2 2.5 0
v 1.2 3.5 0
v 1.2 4.8 0
v 1.2 5.9 0
v 1.4 2.5 0
v 1.4 3.5 0
v 1.4 4.8 0
v 1.4 5.9 0
v 1.6 2.5 0
v 1.6 3.5 0
v 1.6 4.8 0
v 1.6 5.9 0
v 1.8 2.5 0
v 1.8 3.5 0
v 1.8 4.8 0
v 1.8 5.9 0
v 2.2 2.5 0
v 2.2 3.5 0
v 2.2 4.8 0
v 2.2 5.9 0
v 2.4 2.5 0
v 2.4 3.5 0
v 2.4 4.8 0
v 2.4 5.9 0
v 2.6 2.5 0
v 2.6 3.5 0
v 2.6 4.8 0
v 2.6 5.9 0
v 2.8 2.5 0
v 2.8 3.5 0
v 2.8 4.8 0
v 2.8 5.9 0
v 3 2.5 0
v 3 3.5 0
v 3 4.8 0
v 3 5.9 0
v 3.2 2.5 0
v 3.2 2.6 0
v 3.2 3.4 0
v 3.2 3.5 0
v 3.2 4.8 0
v 3.2 4.9 0
v 3.2 5.8 0
v 3.2 5.9 0
v 3.3 2.5 0
v 3.3 2.6 0
v 3.3 3.4 0
v 3.3 3.5 0
v 3.3 4.8 0
v 3.3 4.9 0
v 3.3 5.8 0
v 3.3 5.9 0
v 0.7 2.5 -4
v 0.7 2.6 -4
v 0.7 3.4 -4
v 0.7 3.5 -4
v 0.7 4.8 -4
v 0.7 4.9 -4
v 0.7 5.8 -4
v 0.7 5.9 -4
v 0.8 2.5 -4
v 0.8 2.6 -4
v 0.8 3.4 -4
v 0.8 3.5 -4
v 0.8 4.8 -4
v 0.8 4.9 -4
v 0.8 5.8 -4
v 0.8 5.9 -4
v 1 2.5 -4
v 1 3.5 -4
v 1 4.8 -4
v 1 5.9 -4
v 1.2 2.5 -4
v 1.2 3.5 -4
v 1.2 4.8 -4
v 1.2 5.9 -4
v 1.4 2.5 -4
v 1.4 3.5 -4
v 1.4 4.8 -4
v 1.4 5.9 -4
v 1.6 2.5 -4
v 1.6 3.5 -4
v 1.6 4.8 -4
v 1.6 5.9 -4
v 1.8 2.5 -4
v 1.8 3.5 -4
v 1.8 4.8 -4
v 1.8 5.9 -4
v 2.2 2.5 -4
v 2.2 3.5 -4
v 2.2 4.8 -4
v 2.2 5.9 -4
v 2.4 2.5 -4
v 2.4 3.5 -4
v 2.4 4.8 -4
v 2.4 5.9 -4
v 2.6 2.5 -4
v 2.6 3.5 -4
v 2.6 4.8 -4
v 2.6 5.9 -4
v 2.8 2.5 -4
v 2.8 3.5 -4
v 2.8 4.8 -4
v 2.8 5.9 -4
v 3 2.5 -4
v 3 3.5 -4
v 3 4.8 -4
v 3 5.9 -4
v 3.2 2.5 -4
v 3.2 2.6 -4
v 3.2 3.4 -4
v 3.2 3.5 -4
v 3.2 4.8 -4
v 3.2 4.9 -4
v 3.2 5.8 -4
v 3.2 5.9 -4
v 3.3 2.5 -4
v 3.3 2.6 -4
v 3.3 3.4 -4
v 3.3 3.5 -4
v 3.3 4.8 -4
v 3.3 4.9 -4
v 3.3 5.8 -4
v 3.3 5.9 -4
v 0.7 2.5 0
v 0.8 2.5 0
v 1 2.5 0
v 1.2 2.5 0
v 1.4 2.5 0
v 1.6 2.5 0
v 1.8 2.5 0
v 2.2 2.5 0
v 2.4 2.5 0
v 2.6 2.5 0
v 2.8 2.5 0
v 3 2.5 0
v 3.2 2.5 0
v 3.3 2.5 0
v 0.7 2.5 -4
v 0.8 2.5 -4
v 1 2.5 -4
v 1.2 2.5 -4
v 1.4 2.5 -4
v 1.6 2.5 -4
v 1.8 2.5 -4
v 2.2 2.5 -4
v 2.4 2.5 -4
v 2.6 2.5 -4
v 2.8 2.5 -4
v 3 2.5 -4
v 3.2 2.5 -4
v 3.3 2.5 -4
v 0.7 4.8 0
v 0.8 4.8 0
v 1 4.8 0
v 1.2 4.8 0
v 1.4 4.8 0
v 1.6 4.8 0
v 1.8 4.8 0
v 2.2 4.8 0
v 2.4 4.8 0
v 2.6 4.8 0
v 2.8 4.8 0
v 3 4.8 0
v 3.2 4.8 0
v 3.3 4.8 0
v 0.7 4.8 -4
v 0.8 4.8 -4
v 1 4.8 -4
v 1.2 4.8 -4
v 1.4 4.8 -4
v 1.6 4.8 -4
v 1.8 4.8 -4
v 2.2 4.8 -4
v 2.4 4.8 -4
v 2.6 4.8 -4
v 2.8 4.8 -4
v 3 4.8 -4
v 3.2 4.8 -4
v 3.3 4.8 -4
v 0.7 3.5 0
v 0.8 3.5 0
v 1 3.5 0
v 1.2 3.5 0
v 1.4 3.5 0
v 1.6 3.5 0
v 1.8 3.5 0
v 2.2 3.5 0
v 2.4 3.5 0
v 2.6 3.5 0
v 2.8 3.5 0
v 3 3.5 0
v 3.2 3.5 0
v 3.3 3.5 0
v 0.7 3.5 -4
v 0.8 3.5 -4
v 1 3.5 -4
v 1.2 3.5 -4
v 1.4 3.5 -4
v 1.6 3.5 -4
v 1.8 3.5 -4
v 2.2 3.5 -4
v 2.4 3.5 -4
v 2.6 3.5 -4
v 2.8 3.5 -4
v 3 3.5 -4
v 3.2 3.5 -4
v 3.3 3.5 -4
v 0.7 5.9 0
v 0.8 5.9 0
v 1 5.9 0
v 1.2 5.9 0
v 1.4 5.9 0
v 1.6 5.9 0
v 1.8 5.9 0
v 2.2 5.9 0
v 2.4 5.9 0
v 2.6 5.9 0
v 2.8 5.9 0
v 3 5.9 0
v 3.2 5.9 0
v 3.3 5.9 0
v 0.7 5.9 -4
v 0.8 5.9 -4
v 1 5.9 -4
v 1.2 5.9 -4
v 1.4 5.9 -4
v 1.6 5.9 -4
v 1.8 5.9 -4
v 2.2 5.9 -4
v 2.4 5.9 -4
v 2.6 5.9 -4
v 2.8 5.9 -4
v 3 5.9 -4
v 3.2 5.9 -4
v 3.3 5.9 -4

# faces
f 3/3/1 2/3/1 1/3/1
f 4/3/1 2/3/1 3/3/1
f 5/1/1 4/1/1 3/1/1
f 6/1/1 4/1/1 5/1/1
f 7/3/1 6/3/1 5/3/1
f 8/3/1 6/3/1 7/3/1
f 11/3/1 10/3/1 9/3/1
f 12/3/1 10/3/1 11/3/1
f 13/1/1 12/1/1 11/1/1
f 14/1/1 12/1/1 13/1/1
f 15/3/1 14/3/1 13/3/1
f 16/3/1 14/3/1 15/3/1
f 17/3/2 18/3/2 19/3/2
f 19/3/2 18/3/2 20/3/2
f 19/1/2 20/1/2 21/1/2
f 21/1/2 20/1/2 22/1/2
f 21/3/2 22/3/2 23/3/2
f 23/3/2 22/3/2 24/3/2
f 25/3/2 26/3/2 27/3/2
f 27/3/2 26/3/2 28/3/2
f 27/1/2 28/1/2 29/1/2
f 29/1/2 28/1/2 30/1/2
f 29/3/2 30/3/2 31/3/2
f 31/3/2 30/3/2 32/3/2
f 41/3/3 34/3/3 33/3/3
f 42/1/3 35/1/3 34/1/3
f 42/3/3 34/3/3 41/3/3
f 43/3/3 36/3/3 35/3/3
f 43/1/3 35/1/3 42/1/3
f 44/3/3 36/3/3 43/3/3
f 45/3/3 38/3/3 37/3/3
f 46/1/3 39/1/3 38/1/3
f 46/3/3 38/3/3 45/3/3
f 47/3/3 40/3/3 39/3/3
f 47/1/3 39/1/3 46/1/3
f 48/3/3 40/3/3 47/3/3
f 49/2/3 42/2/3 41/2/3
f 49/2/3 44/2/3 43/2/3
f 49/2/3 43/2/3 42/2/3
f 50/2/3 44/2/3 49/2/3
f 51/2/3 46/2/3 45/2/3
f 51/2/3 48/2/3 47/2/3
f 51/2/3 47/2/3 46/2/3
f 52/2/3 48/2/3 51/2/3
f 53/3/3 50/3/3 49/3/3
f 54/3/3 50/3/3 53/3/3
f 55/3/3 52/3/3 51/3/3
f 56/3/3 52/3/3 55/3/3
f 57/2/3 54/2/3 53/2/3
f 58/2/3 54/2/3 57/2/3
f 59/2/3 56/2/3 55/2/3
f 60/2/3 56/2/3 59/2/3
f 61/3/3 58/3/3 57/3/3
f 62/3/3 58/3/3 61/3/3
f 63/3/3 60/3/3 59/3/3
f 64/3/3 60/3/3 63/3/3
f 65/2/3 62/2/3 61/2/3
f 66/2/3 62/2/3 65/2/3
f 67/2/3 64/2/3 63/2/3
f 68/2/3 64/2/3 67/2/3
f 69/3/3 66/3/3 65/3/3
f 70/3/3 66/3/3 69/3/3
f 71/3/3 68/3/3 67/3/3
f 72/3/3 68/3/3 71/3/3
f 73/2/3 70/2/3 69/2/3
f 74/2/3 70/2/3 73/2/3
f 75/2/3 72/2/3 71/2/3
f 76/2/3 72/2/3 75/2/3
f 77/3/3 74/3/3 73/3/3
f 78/3/3 74/3/3 77/3/3
f 79/3/3 76/3/3 75/3/3
f 80/3/3 76/3/3 79/3/3
f 81/2/3 78/2/3 77/2/3
f 82/2/3 78/2/3 81/2/3
f 83/2/3 80/2/3 79/2/3
f 84/2/3 80/2/3 83/2/3
f 85/3/3 82/3/3 81/3/3
f 86/3/3 82/3/3 85/3/3
f 87/3/3 84/3/3 83/3/3
f 88/3/3 84/3/3 87/3/3
f 89/2/3 86/2/3 85/2/3
f 90/2/3 86/2/3 89/2/3
f 91/2/3 86/2/3 90/2/3
f 92/2/3 86/2/3 91/2/3
f 93/2/3 88/2/3 87/2/3
f 94/2/3 88/2/3 93/2/3
f 95/2/3 88/2/3 94/2/3
f 96/2/3 88/2/3 95/2/3
f 97/3/3 90/3/3 89/3/3
f 98/1/3 91/1/3 90/1/3
f 98/3/3 90/3/3 97/3/3
f 99/3/3 92/3/3 91/3/3
f 99/1/3 91/1/3 98/1/3
f 100/3/3 92/3/3 99/3/3
f 101/3/3 94/3/3 93/3/3
f 102/1/3 95/1/3 94/1/3
f 102/3/3 94/3/3 101/3/3
f 103/3/3 96/3/3 95/3/3
f 103/1/3 95/1/3 102/1/3
f 104/3/3 96/3/3 103/3/3
f 105/3/4 106/3/4 113/3/4
f 106/1/4 107/1/4 114/1/4
f 113/3/4 106/3/4 114/3/4
f 107/3/4 108/3/4 115/3/4
f 114/1/4 107/1/4 115/1/4
f 115/3/4 108/3/4 116/3/4
f 109/3/4 110/3/4 117/3/4
f 110/1/4 111/1/4 118/1/4
f 117/3/4 110/3/4 118/3/4
f 111/3/4 112/3/4 119/3/4
f 118/1/4 111/1/4 119/1/4
f 119/3/4 112/3/4 120/3/4
f 113/2/4 114/2/4 121/2/4
f 115/2/4 116/2/4 121/2/4
f 114/2/4 115/2/4 121/2/4
f 121/2/4 116/2/4 122/2/4
f 117/2/4 118/2/4 123/2/4
f 119/2/4 120/2/4 123/2/4
f 118/2/4 119/2/4 123/2/4
f 123/2/4 120/2/4 124/2/4
f 121/3/4 122/3/4 125/3/4
f 125/3/4 122/3/4 126/3/4
f 123/3/4 124/3/4 127/3/4
f 127/3/4 124/3/4 128/3/4
f 125/2/4 126/2/4 129/2/4
f 129/2/4 126/2/4 130/2/4
f 127/2/4 128/2/4 131/2/4
f 131/2/4 128/2/4 132/2/4
f 129/3/4 130/3/4 133/3/4
f 133/3/4 130/3/4 134/3/4
f 131/3/4 132/3/4 135/3/4
f 135/3/4 132/3/4 136/3/4
f 133/2/4 134/2/4 137/2/4
f 137/2/4 134/2/4 138/2/4
f 135/2/4 136/2/4 139/2/4
f 139/2/4 136/2/4 140/2/4
f 137/3/4 138/3/4 141/3/4
f 141/3/4 138/3/4 142/3/4
f 139/3/4 140/3/4 143/3/4
f 143/3/4 140/3/4 144/3/4
f 141/2/4 142/2/4 145/2/4
f 145/2/4 142/2/4 146/2/4
f 143/2/4 144/2/4 147/2/4
f 147/2/4 144/2/4 148/2/4
f 145/3/4 146/3/4 149/3/4
f 149/3/4 146/3/4 150/3/4
f 147/3/4 148/3/4 151/3/4
f 151/3/4 148/3/4 152/3/4
f 149/2/4 150/2/4 153/2/4
f 153/2/4 150/2/4 154/2/4
f 151/2/4 152/2/4 155/2/4
f 155/2/4 152/2/4 156/2/4
f 153/3/4 154/3/4 157/3/4
f 157/3/4 154/3/4 158/3/4
f 155/3/4 156/3/4 159/3/4
f 159/3/4 156/3/4 160/3/4
f 157/2/4 158/2/4 161/2/4
f 161/2/4 158/2/4 162/2/4
f 162/2/4 158/2/4 163/2/4
f 163/2/4 158/2/4 164/2/4
f 159/2/4 160/2/4 165/2/4
f 165/2/4 160/2/4 166/2/4
f 166/2/4 160/2/4 167/2/4
f 167/2/4 160/2/4 168/2/4
f 161/3/4 162/3/4 169/3/4
f 162/1/4 163/1/4 170/1/4
f 169/3/4 162/3/4 170/3/4
f 163/3/4 164/3/4 171/3/4
f 170/1/4 163/1/4 171/1/4
f 171/3/4 164/3/4 172/3/4
f 165/3/4 166/3/4 173/3/4
f 166/1/4 167/1/4 174/1/4
f 173/3/4 166/3/4 174/3/4
f 167/3/4 168/3/4 175/3/4
f 174/1/4 167/1/4 175/1/4
f 175/3/4 168/3/4 176/3/4
f 191/3/5 178/3/5 177/3/5
f 192/2/5 179/2/5 178/2/5
f 192/3/5 178/3/5 191/3/5
f 193/3/5 180/3/5 179/3/5
f 193/2/5 179/2/5 192/2/5
f 194/2/5 181/2/5 180/2/5
f 194/3/5 180/3/5 193/3/5
f 195/3/5 182/3/5 181/3/5
f 195/2/5 181/2/5 194/2/5
f 196/2/5 183/2/5 182/2/5
f 196/3/5 182/3/5 195/3/5
f 197/3/5 184/3/5 183/3/5
f 197/2/5 183/2/5 196/2/5
f 198/2/5 185/2/5 184/2/5
f 198/3/5 184/3/5 197/3/5
f 199/3/5 186/3/5 185/3/5
f 199/2/5 185/2/5 198/2/5
f 200/2/5 187/2/5 186/2/5
f 200/3/5 186/3/5 199/3/5
f 201/3/5 188/3/5 187/3/5
f 201/2/5 187/2/5 200/2/5
f 202/2/5 189/2/5 188/2/5
f 202/3/5 188/3/5 201/3/5
f 203/3/5 190/3/5 189/3/5
f 203/2/5 189/2/5 202/2/5
f 204/3/5 190/3/5 203/3/5
f 219/3/5 206/3/5 205/3/5
f 220/2/5 207/2/5 206/2/5
f 220/3/5 206/3/5 219/3/5
f 221/3/5 208/3/5 207/3/5
f 221/2/5 207/2/5 220/2/5
f 222/2/5 209/2/5 208/2/5
f 222/3/5 208/3/5 221/3/5
f 223/3/5 210/3/5 209/3/5
f 223/2/5 209/2/5 222/2/5
f 224/2/5 211/2/5 210/2/5
f 224/3/5 210/3/5 223/3/5
f 225/3/5 212/3/5 211/3/5
f 225/2/5 211/2/5 224/2/5
f 226/2/5 213/2/5 212/2/5
f 226/3/5 212/3/5 225/3/5
f 227/3/5 214/3/5 213/3/5
f 227/2/5 213/2/5 226/2/5
f 228/2/5 215/2/5 214/2/5
f 228/3/5 214/3/5 227/3/5
f 229/3/5 216/3/5 215/3/5
f 229/2/5 215/2/5 228/2/5
f 230/2/5 217/2/5 216/2/5
f 230/3/5 216/3/5 229/3/5
f 231/3/5 218/3/5 217/3/5
f 231/2/5 217/2/5 230/2/5
f 232/3/5 218/3/5 231/3/5
f 233/3/6 234/3/6 247/3/6
f 234/2/6 235/2/6 248/2/6
f 247/3/6 234/3/6 248/3/6
f 235/3/6 236/3/6 249/3/6
f 248/2/6 235/2/6 249/2/6
f 236/2/6 237/2/6 250/2/6
f 249/3/6 236/3/6 250/3/6
f 237/3/6 238/3/6 251/3/6
f 250/2/6 237/2/6 251/2/6
f 238/2/6 239/2/6 252/2/6
f 251/3/6 238/3/6 252/3/6
f 239/3/6 240/3/6 253/3/6
f 252/2/6 239/2/6 253/2/6
f 240/2/6 241/2/6 254/2/6
f 253/3/6 240/3/6 254/3/6
f 241/3/6 242/3/6 255/3/6
f 254/2/6 241/2/6 255/2/6
f 242/2/6 243/2/6 256/2/6
f 255/3/6 242/3/6 256/3/6
f 243/3/6 244/3/6 257/3/6
f 256/2/6 243/2/6 257/2/6
f 244/2/6 245/2/6 258/2/6
f 257/3/6 244/3/6 258/3/6
f 245/3/6 246/3/6 259/3/6
f 258/2/6 245/2/6 259/2/6
f 259/3/6 246/3/6 260/3/6
f 261/3/6 262/3/6 275/3/6
f 262/2/6 263/2/6 276/2/6
f 275/3/6 262/3/6 276/3/6
f 263/3/6 264/3/6 277/3/6
f 276/2/6 263/2/6 277/2/6
f 264/2/6 265/2/6 278/2/6
f 277/3/6 264/3/6 278/3/6
f 265/3/6 266/3/6 279/3/6
f 278/2/6 265/2/6 279/2/6
f 266/2/6 267/2/6 280/2/6
f 279/3/6 266/3/6 280/3/6
f 267/3/6 268/3/6 281/3/6
f 280/2/6 267/2/6 281/2/6
f 268/2/6 269/2/6 282/2/6
f 281/3/6 268/3/6 282/3/6
f 269/3/6 270/3/6 283/3/6
f 282/2/6 269/2/6 283/2/6
f 270/2/6 271/2/6 284/2/6
f 283/3/6 270/3/6 284/3/6
f 271/3/6 272/3/6 285/3/6
f 284/2/6 271/2/6 285/2/6
f 272/2/6 273/2/6 286/2/6
f 285/3/6 272/3/6 286/3/6
f 273/3/6 274/3/6 287/3/6
f 286/2/6 273/2/6 287/2/6
f 287/3/6 274/3/6 288/3/6
